####
#
# OBJ File Generated by Meshlab
#
####
# Object mesh.obj
#
# Vertices: 8
# Faces: 6
#
####
vn -0.5025189 -0.5025189 -0.7035265
v -0.2500000 -0.2500000 -0.3500000
vn 0.2790728 -0.5581456 -0.7814038
v 0.2500000 -0.2500000 -0.3500000
vn -0.5581456 0.2790728 -0.7814038
v -0.2500000 0.2500000 -0.3500000
vn 0.6337243 0.6337243 -0.4436070
v 0.2500000 0.2500000 -0.3500000
vn -0.6337243 -0.6337243 0.4436070
v -0.2500000 -0.2500000 0.3500000
vn 0.5581456 -0.2790728 0.7814038
v 0.2500000 -0.2500000 0.3500000
vn -0.2790728 0.5581456 0.7814038
v -0.2500000 0.2500000 0.3500000
vn 0.5025189 0.5025189 0.7035265
v 0.2500000 0.2500000 0.3500000
# 8 vertices, 0 vertices normals

f 1//1 3//3 4//4 2//2
f 1//1 5//5 7//7 3//3
f 1//1 2//2 6//6 5//5
f 8//8 7//7 5//5 6//6
f 8//8 4//4 3//3 7//7
f 8//8 6//6 2//2 4//4
# 6 faces, 0 coords texture

# End of File
