####
#
# OBJ File Generated by Meshlab
#
####
# Object mesh.obj
#
# Vertices: 8
# Faces: 6
#
####
vn -0.0513816 -0.8563603 -0.5138162
v -0.1500000 -2.5000000 -1.5000000
vn 0.0257163 -0.8572093 -0.5143256
v 0.1500000 -2.5000000 -1.5000000
vn -0.0765964 0.6383036 -0.7659644
v -0.1500000 2.5000000 -1.5000000
vn 0.0573749 0.9562485 -0.2868746
v 0.1500000 2.5000000 -1.5000000
vn -0.0573749 -0.9562485 0.2868746
v -0.1500000 -2.5000000 1.5000000
vn 0.0765964 -0.6383036 0.7659644
v 0.1500000 -2.5000000 1.5000000
vn -0.0257163 0.8572093 0.5143256
v -0.1500000 2.5000000 1.5000000
vn 0.0513816 0.8563603 0.5138162
v 0.1500000 2.5000000 1.5000000
# 8 vertices, 0 vertices normals

f 1//1 3//3 4//4 2//2
f 1//1 5//5 7//7 3//3
f 1//1 2//2 6//6 5//5
f 8//8 7//7 5//5 6//6
f 8//8 4//4 3//3 7//7
f 8//8 6//6 2//2 4//4
# 6 faces, 0 coords texture

# End of File
